<!-- The mark for a dark ground. Same drawing as logo.svg with two
     colours changed: the wordmark, which is #16142E and scores 1.05:1
     on the home page ground - invisible, not subtle - and the
     waveform, lifted from 3.96:1 to 5.96:1. The orange is untouched;
     it reads at 8.7:1 on either ground. -->
<svg xmlns="http://www.w3.org/2000/svg" viewBox="0 0 760 250" role="img" aria-label="Studio Amanorsac">
  <g fill="#5B8CFF"><rect x="73.5" y="93.6" width="9" height="24.4" rx="4.5"/><rect x="73.5" y="182" width="9" height="12.2" rx="4.5"/><rect x="91.8" y="85.8" width="9" height="32.2" rx="4.5"/><rect x="91.8" y="182" width="9" height="16.1" rx="4.5"/><rect x="110.1" y="78.7" width="9" height="39.3" rx="4.5"/><rect x="110.1" y="182" width="9" height="19.6" rx="4.5"/><rect x="128.4" y="73.3" width="9" height="44.7" rx="4.5"/><rect x="128.4" y="182" width="9" height="22.3" rx="4.5"/><rect x="146.7" y="69.4" width="9" height="48.6" rx="4.5"/><rect x="146.7" y="182" width="9" height="24.3" rx="4.5"/><rect x="165.0" y="62.0" width="9" height="56.0" rx="4.5"/><rect x="165.0" y="182" width="9" height="28.0" rx="4.5"/><rect x="183.3" y="51.3" width="9" height="66.7" rx="4.5"/><rect x="183.3" y="182" width="9" height="33.3" rx="4.5"/><rect x="201.6" y="43.8" width="9" height="74.2" rx="4.5"/><rect x="201.6" y="182" width="9" height="37.1" rx="4.5"/><rect x="219.9" y="40.4" width="9" height="77.6" rx="4.5"/><rect x="219.9" y="182" width="9" height="38.8" rx="4.5"/><rect x="238.2" y="40.6" width="9" height="77.4" rx="4.5"/><rect x="238.2" y="182" width="9" height="38.7" rx="4.5"/><rect x="256.5" y="35.5" width="9" height="82.5" rx="4.5"/><rect x="256.5" y="182" width="9" height="41.2" rx="4.5"/><rect x="274.8" y="34.2" width="9" height="83.8" rx="4.5"/><rect x="274.8" y="182" width="9" height="41.9" rx="4.5"/><rect x="293.1" y="37.5" width="9" height="80.5" rx="4.5"/><rect x="293.1" y="182" width="9" height="40.2" rx="4.5"/><rect x="311.4" y="44.4" width="9" height="73.6" rx="4.5"/><rect x="311.4" y="182" width="9" height="36.8" rx="4.5"/><rect x="329.7" y="48.8" width="9" height="69.2" rx="4.5"/><rect x="329.7" y="182" width="9" height="34.6" rx="4.5"/><rect x="348.0" y="49.5" width="9" height="68.5" rx="4.5"/><rect x="348.0" y="182" width="9" height="34.2" rx="4.5"/><rect x="366.3" y="52.0" width="9" height="66.0" rx="4.5"/><rect x="366.3" y="182" width="9" height="33.0" rx="4.5"/><rect x="384.7" y="56.6" width="9" height="61.4" rx="4.5"/><rect x="384.7" y="182" width="9" height="30.7" rx="4.5"/><rect x="403.0" y="62.6" width="9" height="55.4" rx="4.5"/><rect x="403.0" y="182" width="9" height="27.7" rx="4.5"/><rect x="421.3" y="61.4" width="9" height="56.6" rx="4.5"/><rect x="421.3" y="182" width="9" height="28.3" rx="4.5"/><rect x="439.6" y="62.4" width="9" height="55.6" rx="4.5"/><rect x="439.6" y="182" width="9" height="27.8" rx="4.5"/><rect x="457.9" y="67.1" width="9" height="50.9" rx="4.5"/><rect x="457.9" y="182" width="9" height="25.5" rx="4.5"/><rect x="476.2" y="75.0" width="9" height="43.0" rx="4.5"/><rect x="476.2" y="182" width="9" height="21.5" rx="4.5"/><rect x="494.5" y="80.6" width="9" height="37.4" rx="4.5"/><rect x="494.5" y="182" width="9" height="18.7" rx="4.5"/><rect x="512.8" y="82.5" width="9" height="35.5" rx="4.5"/><rect x="512.8" y="182" width="9" height="17.7" rx="4.5"/><rect x="531.1" y="86.2" width="9" height="31.8" rx="4.5"/><rect x="531.1" y="182" width="9" height="15.9" rx="4.5"/><rect x="549.4" y="91.6" width="9" height="26.4" rx="4.5"/><rect x="549.4" y="182" width="9" height="13.2" rx="4.5"/><rect x="567.7" y="98.0" width="9" height="20.0" rx="4.5"/><rect x="567.7" y="182" width="9" height="10.0" rx="4.5"/><rect x="586.0" y="96.2" width="9" height="21.8" rx="4.5"/><rect x="586.0" y="182" width="9" height="10.9" rx="4.5"/><rect x="604.3" y="95.0" width="9" height="23.0" rx="4.5"/><rect x="604.3" y="182" width="9" height="11.5" rx="4.5"/><rect x="622.6" y="96.2" width="9" height="21.8" rx="4.5"/><rect x="622.6" y="182" width="9" height="10.9" rx="4.5"/><rect x="640.9" y="99.5" width="9" height="18.5" rx="4.5"/><rect x="640.9" y="182" width="9" height="9.2" rx="4.5"/><rect x="659.2" y="100.1" width="9" height="17.9" rx="4.5"/><rect x="659.2" y="182" width="9" height="9.0" rx="4.5"/><rect x="677.5" y="96.9" width="9" height="21.1" rx="4.5"/><rect x="677.5" y="182" width="9" height="10.6" rx="4.5"/></g>
  <g font-family="'Arial Black','Helvetica Neue',Arial,sans-serif" fill="#F3F1EC">
    <text x="380" y="172" text-anchor="middle" font-size="70" font-weight="900" letter-spacing="6">AMANORSAC</text>
    <text x="660" y="96" text-anchor="end" font-size="26" font-weight="700" letter-spacing="9" fill="#F3F1EC">STUDIO</text>
  </g>
  <g fill="#EF9F27" transform="translate(409,150)">
    <rect x="-9" y="-4" width="3.4" height="8" rx="1.5"/>
    <rect x="-3.7" y="-9" width="3.4" height="18" rx="1.5"/>
    <rect x="1.6" y="-6.5" width="3.4" height="13" rx="1.5"/>
    <rect x="6.9" y="-3" width="3.4" height="6" rx="1.5"/>
  </g>
</svg>